<?xml version="1.0" encoding="UTF-8" standalone="no"?>
 <svg
      xmlns="http://www.w3.org/2000/svg"
      width="150px"
      height="150px"
      version="1.1"
      viewBox="0 0 210 297"
    >
      <defs>
        <path id="rect12" d="M12.851 136.071H203.351V193.523H12.851z"></path>
      </defs>
      <g>
        <text
          
          fill="#ff0"
          fillOpacity="1"
          stroke="none"
          fontFamily="sans-serif"
          fontSize="25.4"
          fontStyle="normal"
          fontWeight="normal"
          xmlSpace="preserve"
        >
          <tspan x="12.852" y="159.245">
            <tspan> The E-shop</tspan>
          </tspan>
        </text>
        <g fill="#ff0" fillRule="evenodd" stroke="none" strokeLinejoin="round">
          <path
            fill="#e9e9ff"
            d="M96.91 94.486l82.953-46.236v83.268L96.91 139.35z"
          ></path>
          <path
            fill="#353564"
            d="M76.351 84.667v53.02l20.559 1.663V94.486z"
          ></path>
          <path
            fill="#4d4d9f"
            d="M76.351 84.667l91.47-76.474 12.042 40.057L96.91 94.486z"
          ></path>
          <path
            fill="#afafde"
            d="M76.351 137.687l91.47-12.955 12.042 6.786-82.953 7.832z"
          ></path>
          <path
            fill="#d7d7ff"
            d="M167.821 8.193v116.54l12.042 6.785V48.25z"
          ></path>
          <path
            fill="#8686bf"
            d="M76.351 84.667l91.47-76.474v116.54l-91.47 12.954z"
          ></path>
        </g>
        <g fill="#ff0" fillRule="evenodd" stroke="none" strokeLinejoin="round">
          <path
            fill="#e9e9ff"
            d="M37.336 98.866l54.657-72.663v93.488l-54.657 17.117z"
          ></path>
          <path
            fill="#353564"
            d="M26.458 95.739v40.332l10.878.737V98.866z"
          ></path>
          <path
            fill="#4d4d9f"
            d="M26.458 95.739L71.815 5.292l20.178 20.911-54.657 72.663z"
          ></path>
          <path
            fill="#afafde"
            d="M26.458 136.071l45.357-21.306 20.178 4.926-54.657 17.117z"
          ></path>
          <path
            fill="#d7d7ff"
            d="M71.815 5.292v109.473l20.178 4.926V26.203z"
          ></path>
          <path
            fill="#8686bf"
            d="M26.458 95.739L71.815 5.292v109.473l-45.357 21.306z"
          ></path>
        </g>
        <path
          fill="red"
          fillRule="evenodd"
          stroke="#000"
          strokeWidth="0.265"
          d="M188.232 149.679c.076.833-1.086.513-1.386.126-.81-1.05.091-2.459 1.134-2.898 1.865-.786 3.855.597 4.41 2.394.815 2.636-1.105 5.274-3.654 5.921-3.397.862-6.704-1.611-7.433-4.913-.918-4.156 2.117-8.139 6.173-8.946 4.913-.977 9.575 2.623 10.458 7.434 1.04 5.669-3.129 11.013-8.694 11.969-6.425 1.103-12.453-3.634-13.481-9.954-1.168-7.18 4.14-13.893 11.213-14.993 7.936-1.233 15.334 4.645 16.505 12.474 1.3 8.691-5.15 16.775-13.733 18.017"
        ></path>
        <path
          fill="#ff0"
          strokeWidth="0.265"
          d="M126.244 80.131l5.18-3.116.37-6.034 4.564 3.963 5.852-1.513-2.359 5.566 3.248 5.098-6.022-.523-3.846 4.664-1.363-5.89z"
        ></path>
        <path
          fill="#ff0"
          strokeWidth="0.265"
          d="M153.458 43.845l1.094 5.619 5.248 2.284-5.006 2.776-.55 5.697-4.187-3.903-5.589 1.237 2.418-5.188-2.903-4.933 5.681.697z"
        ></path>
        <path
          fill="#ff0"
          strokeWidth="0.265"
          d="M116.417 102.054l2.888 5.852 6.458.938-4.673 4.555 1.103 6.432-5.776-3.036-5.777 3.036 1.103-6.432-4.673-4.555 6.458-.938z"
        ></path>
        <path
          fill="#ff0"
          strokeWidth="0.265"
          d="M143.631 99.786l6.267 3.624 6.54-3.108-1.511 7.08 4.976 5.26-7.2.75-3.464 6.359-2.94-6.616-7.117-1.33 5.384-4.84z"
        ></path>
        <path
          fill="#ff0"
          strokeWidth="0.265"
          d="M106.59 74.84l.876 4.045 3.83 1.571-3.576 2.084-.311 4.128-3.088-2.757-4.021.98 1.668-3.789-2.175-3.522 4.119.416z"
        ></path>
        <path
          fill="#ff0"
          strokeWidth="0.265"
          d="M57.452 84.667L55.196 86.9l.56 3.125-2.821-1.456-2.8 1.499.514-3.133-2.29-2.2 3.138-.48 1.383-2.857 1.427 2.836z"
        ></path>
        <path
          fill="#ff0"
          strokeWidth="0.265"
          d="M65.012 48.381l.637 6.963 6.098 3.422-6.426 2.758-1.37 6.857-4.609-5.259-6.944.815 3.577-6.008-2.921-6.352 6.819 1.545z"
        ></path>
        <path
          fill="#ff0"
          strokeWidth="0.265"
          d="M46.869 111.881l-2.718 4.7 2.33 4.905-5.31-1.133-3.944 3.732-.563-5.4-4.769-2.598 4.962-2.205.997-5.338 3.63 4.038z"
        ></path>
      </g>
    </svg>
